<svg width="18" height="18" viewBox="0 0 18 18" fill="none" xmlns="http://www.w3.org/2000/svg">
<path d="M5.26423 12.375C5.26423 12.996 4.76023 13.5 4.13923 13.5C3.51823 13.5 3.01423 12.996 3.01423 12.375C3.01423 11.754 3.51823 11.25 4.13923 11.25C4.76023 11.25 5.26423 11.754 5.26423 12.375ZM18 13.125C18 15.3997 16.149 17.25 13.875 17.25C11.8575 17.25 10.176 15.792 9.82198 13.875H8.17873C7.82473 15.792 6.14323 17.25 4.12573 17.25C1.85173 17.25 0.000732422 15.3997 0.000732422 13.125C0.000732422 10.8503 1.85173 9 4.12573 9C4.62373 9 5.09848 9.093 5.54098 9.25575L6.29473 7.98075C5.42773 7.224 4.87573 6.114 4.87573 4.875C4.87573 2.60025 6.72673 0.75 9.00073 0.75C11.2747 0.75 13.1257 2.60025 13.1257 4.875C13.1257 6.114 12.5745 7.224 11.7067 7.98075L12.4605 9.25575C12.903 9.09375 13.3777 9 13.8757 9C16.1497 9 18 10.8503 18 13.125ZM6.37498 4.875C6.37498 5.619 6.68923 6.288 7.18873 6.7665C7.33873 6.32175 7.75498 6 8.24998 6H9.74998C10.245 6 10.6612 6.32175 10.8112 6.7665C11.3107 6.288 11.625 5.619 11.625 4.875C11.625 3.4275 10.4475 2.25 8.99998 2.25C7.55248 2.25 6.37498 3.4275 6.37498 4.875ZM6.74998 13.125C6.74998 11.6775 5.57248 10.5 4.12498 10.5C2.67748 10.5 1.49998 11.6775 1.49998 13.125C1.49998 13.869 1.81423 14.538 2.31373 15.0165C2.46373 14.5717 2.87998 14.25 3.37498 14.25H4.87498C5.36998 14.25 5.78623 14.5717 5.93623 15.0165C6.43573 14.538 6.74998 13.869 6.74998 13.125ZM11.1682 10.02L10.4145 8.745C9.97273 8.907 9.49723 9 8.99923 9C8.50123 9 8.02648 8.907 7.58398 8.745L6.83023 10.02C7.51798 10.62 8.00473 11.442 8.17723 12.375H9.82048C9.99298 11.442 10.4805 10.62 11.1682 10.02ZM16.5 13.125C16.5 11.6775 15.3225 10.5 13.875 10.5C12.4275 10.5 11.25 11.6775 11.25 13.125C11.25 13.869 11.5642 14.538 12.0637 15.0165C12.2137 14.5717 12.63 14.25 13.125 14.25H14.625C15.12 14.25 15.5362 14.5717 15.6862 15.0165C16.1857 14.538 16.5 13.869 16.5 13.125ZM13.8892 11.25C13.2682 11.25 12.7642 11.754 12.7642 12.375C12.7642 12.996 13.2682 13.5 13.8892 13.5C14.5102 13.5 15.0142 12.996 15.0142 12.375C15.0142 11.754 14.5102 11.25 13.8892 11.25ZM9.01423 5.25C9.63523 5.25 10.1392 4.746 10.1392 4.125C10.1392 3.504 9.63523 3 9.01423 3C8.39323 3 7.88923 3.504 7.88923 4.125C7.88923 4.746 8.39323 5.25 9.01423 5.25Z" fill="#000F08"/>
</svg>
